<svg xmlns="http://www.w3.org/2000/svg" style="display:none">
  <defs>
    <symbol id="layout-dashboard" viewBox="0 0 24 24" fill="none" stroke="currentColor" stroke-width="1.8" stroke-linecap="round" stroke-linejoin="round"><rect x="3" y="3" width="7" height="8" rx="1.5"/><rect x="14" y="3" width="7" height="5" rx="1.5"/><rect x="14" y="12" width="7" height="9" rx="1.5"/><rect x="3" y="15" width="7" height="6" rx="1.5"/></symbol>
    <symbol id="users" viewBox="0 0 24 24" fill="none" stroke="currentColor" stroke-width="1.8" stroke-linecap="round" stroke-linejoin="round"><circle cx="9" cy="8" r="3"/><path d="M3.5 20c.7-3.5 2.5-5.2 5.5-5.2s4.8 1.7 5.5 5.2M17 8h4M19 6v4"/></symbol>
    <symbol id="palette" viewBox="0 0 24 24" fill="none" stroke="currentColor" stroke-width="1.8" stroke-linecap="round" stroke-linejoin="round"><path d="M12 3a9 9 0 1 0 0 18h1.2a1.8 1.8 0 0 0 0-3.6h-.8a1.7 1.7 0 0 1 0-3.4h2.7A5.9 5.9 0 0 0 21 8.1C20.5 5.1 16.8 3 12 3Z"/><circle cx="7.7" cy="10" r=".8"/><circle cx="10.2" cy="7" r=".8"/><circle cx="14" cy="7" r=".8"/></symbol>
    <symbol id="scissors" viewBox="0 0 24 24" fill="none" stroke="currentColor" stroke-width="1.8" stroke-linecap="round" stroke-linejoin="round"><circle cx="6" cy="7" r="2.5"/><circle cx="6" cy="17" r="2.5"/><path d="m8.2 8.5 10.3 9M8.2 15.5 20 4"/></symbol>
    <symbol id="calendar" viewBox="0 0 24 24" fill="none" stroke="currentColor" stroke-width="1.8" stroke-linecap="round" stroke-linejoin="round"><rect x="3" y="5" width="18" height="16" rx="2"/><path d="M3 10h18M8 3v4M16 3v4"/></symbol>
    <symbol id="image" viewBox="0 0 24 24" fill="none" stroke="currentColor" stroke-width="1.8" stroke-linecap="round" stroke-linejoin="round"><rect x="3" y="4" width="18" height="16" rx="2"/><circle cx="9" cy="10" r="2"/><path d="m21 16-5.5-5-9.5 9"/></symbol>
    <symbol id="message-question" viewBox="0 0 24 24" fill="none" stroke="currentColor" stroke-width="1.8" stroke-linecap="round" stroke-linejoin="round"><path d="M21 11.5a8.4 8.4 0 0 1-8.4 8.4H12L4 21l1.4-3.6a8.4 8.4 0 1 1 15.6-5.9Z"/><path d="M9.5 9.2a2.5 2.5 0 0 1 4.9.7c0 1.6-2.4 2-2.4 3.6M12 16.3h.01"/></symbol>
    <symbol id="message-circle" viewBox="0 0 24 24" fill="none" stroke="currentColor" stroke-width="1.8" stroke-linecap="round" stroke-linejoin="round"><path d="M20.5 11.5a8.5 8.5 0 0 1-8.5 8.5H8.7L4 21l1.5-4.3A8.5 8.5 0 1 1 20.5 11.5Z"/><path d="M8.5 11.5h.01M12 11.5h.01M15.5 11.5h.01"/></symbol>
    <symbol id="bot" viewBox="0 0 24 24" fill="none" stroke="currentColor" stroke-width="1.8" stroke-linecap="round" stroke-linejoin="round"><path d="M12 3v3M8 6h8a4 4 0 0 1 4 4v6a4 4 0 0 1-4 4H8a4 4 0 0 1-4-4v-6a4 4 0 0 1 4-4Z"/><circle cx="9" cy="13" r="1"/><circle cx="15" cy="13" r="1"/><path d="M9 17h6M20 11h1M3 11h1"/></symbol>
    <symbol id="settings" viewBox="0 0 24 24" fill="none" stroke="currentColor" stroke-width="1.8" stroke-linecap="round" stroke-linejoin="round"><circle cx="12" cy="12" r="3"/><path d="M19.4 15a1.7 1.7 0 0 0 .3 1.9l.1.1-2.1 2.1-.1-.1a1.7 1.7 0 0 0-1.9-.3 1.7 1.7 0 0 0-1 1.6v.2h-3v-.2a1.7 1.7 0 0 0-1-1.6 1.7 1.7 0 0 0-1.9.3l-.1.1-2.1-2.1.1-.1A1.7 1.7 0 0 0 7 15a1.7 1.7 0 0 0-1.6-1H5.2v-3h.2A1.7 1.7 0 0 0 7 10a1.7 1.7 0 0 0-.3-1.9l-.1-.1 2.1-2.1.1.1a1.7 1.7 0 0 0 1.9.3 1.7 1.7 0 0 0 1-1.6v-.2h3v.2a1.7 1.7 0 0 0 1 1.6 1.7 1.7 0 0 0 1.9-.3l.1-.1 2.1 2.1-.1.1A1.7 1.7 0 0 0 19.4 10a1.7 1.7 0 0 0 1.6 1h.2v3H21a1.7 1.7 0 0 0-1.6 1Z"/></symbol>
    <symbol id="user-x" viewBox="0 0 24 24" fill="none" stroke="currentColor" stroke-width="1.8" stroke-linecap="round" stroke-linejoin="round"><circle cx="9" cy="8" r="3"/><path d="M3.5 20c.7-3.5 2.5-5.2 5.5-5.2 1.2 0 2.2.3 3 .9M17 9l4 4m0-4-4 4"/></symbol>
    <symbol id="clipboard-list" viewBox="0 0 24 24" fill="none" stroke="currentColor" stroke-width="1.8" stroke-linecap="round" stroke-linejoin="round"><rect x="5" y="4" width="14" height="17" rx="2"/><path d="M9 4.5V3h6v1.5M9 10h6M9 14h6M9 18h4"/></symbol>
    <symbol id="sparkles" viewBox="0 0 24 24" fill="none" stroke="currentColor" stroke-width="1.8" stroke-linecap="round" stroke-linejoin="round"><path d="m12 3-1.3 5.7L5 10l5.7 1.3L12 17l1.3-5.7L19 10l-5.7-1.3L12 3ZM5 16l-.6 2.4L2 19l2.4.6L5 22l.6-2.4L8 19l-2.4-.6L5 16Z"/></symbol>
    <symbol id="camera" viewBox="0 0 24 24" fill="none" stroke="currentColor" stroke-width="1.8" stroke-linecap="round" stroke-linejoin="round"><path d="M4 7h3l1.5-2h7L17 7h3a2 2 0 0 1 2 2v9a2 2 0 0 1-2 2H4a2 2 0 0 1-2-2V9a2 2 0 0 1 2-2Z"/><circle cx="12" cy="13" r="3.5"/></symbol>
    <symbol id="file-text" viewBox="0 0 24 24" fill="none" stroke="currentColor" stroke-width="1.8" stroke-linecap="round" stroke-linejoin="round"><path d="M14 3H6a2 2 0 0 0-2 2v14a2 2 0 0 0 2 2h12a2 2 0 0 0 2-2V9l-6-6Z"/><path d="M14 3v6h6M8 13h8M8 17h6"/></symbol>
  </defs>
</svg>
